<svg width="36" height="37" viewBox="0 0 36 37" fill="none" xmlns="http://www.w3.org/2000/svg">
<path d="M36 6V31C36 34.03 33.53 36.5 30.5 36.5H25V22.5H28.62C29.13 22.5 29.56 22.12 29.62 21.62L29.99 18.62C30.03 18.34 29.94 18.05 29.75 17.84C29.56 17.62 29.29 17.5 29 17.5H25V14C25 12.9 25.9 12 27 12H29C29.55 12 30 11.55 30 11V7.62C30 7.11 29.6 6.68 29.09 6.63C29.03 6.62 27.62 6.5 25.83 6.5C21.43 6.5 19 9.12 19 13.87V17.5H15C14.45 17.5 14 17.95 14 18.5V21.5C14 22.05 14.45 22.5 15 22.5H19V36.5H5.5C2.47 36.5 0 34.03 0 31V6C0 2.97 2.47 0.5 5.5 0.5H30.5C33.53 0.5 36 2.97 36 6Z" fill="#FFAC00"/>
</svg>
