<svg width="194" height="489" viewBox="0 0 194 489" fill="none" xmlns="http://www.w3.org/2000/svg">
<path d="M104.305 48.799C100.476 49.6713 98.6128 54.0851 98.248 57.9911C97.8833 61.8971 98.3782 66.0375 96.7369 69.6049C94.8871 73.6151 90.4711 76.5837 90.3278 80.9974C90.2366 83.6926 91.8388 86.2054 91.7607 88.9266C91.6304 93.3534 87.1232 96.7386 86.8757 101.113C86.7063 104.303 88.8297 107.35 88.3217 110.501C87.9309 112.949 86.016 114.875 85.2083 117.219C83.606 121.906 86.8236 127.049 91.0052 129.679C93.3478 131.151 95.9837 132.094 98.7289 132.443C101.474 132.791 104.262 132.536 106.898 131.695C109.535 130.854 111.955 129.448 113.992 127.575C116.028 125.702 117.63 123.408 118.687 120.852C121.006 115.227 120.498 108.886 119.99 102.832C118.426 83.9443 117.263 65.0306 116.498 46.0908" fill="#263238"/>
<path d="M93.1797 115.435C93.9678 114.946 94.5828 114.222 94.9383 113.365C95.3141 112.346 95.4652 111.258 95.3812 110.175C95.2385 108.739 94.9191 107.327 94.4303 105.97C93.8072 104.263 93.5757 102.439 93.7529 100.631C94.0785 98.6002 95.5375 96.9337 96.8532 95.2932C97.5617 94.4903 98.1537 93.5918 98.6118 92.6241C99.0709 91.6455 99.1453 90.5302 98.8203 89.4993C98.1429 87.377 96.0586 85.8146 95.1076 83.3538C94.6606 82.1356 94.5881 80.8117 94.8992 79.552C95.1947 78.3709 95.6321 77.2298 96.2019 76.1538C97.3017 74.2158 98.1759 72.1582 98.8072 70.0214C99.7191 65.894 99.2892 61.949 99.9145 58.707C100.261 56.1104 101.414 53.6879 103.21 51.7803C103.718 51.2665 104.297 50.828 104.93 50.4783C105.148 50.3648 105.38 50.2816 105.62 50.231C104.804 50.6802 104.054 51.2411 103.393 51.8975C101.729 53.8242 100.68 56.2051 100.383 58.733C100.155 60.4599 100.033 62.1992 100.019 63.941C100.015 65.9909 99.814 68.0358 99.4194 70.0474C98.7979 72.2334 97.9236 74.3394 96.8141 76.323C95.8371 78.3672 94.9383 80.7629 95.7981 83.0023C96.6578 85.2417 98.729 86.7911 99.5237 89.1868C99.8824 90.3703 99.7944 91.6443 99.2762 92.7673C98.7685 93.8323 98.1105 94.8189 97.3222 95.6968C96.0195 97.3373 94.5996 98.8997 94.2869 100.723C94.1044 102.451 94.3091 104.199 94.8862 105.839C95.3515 107.239 95.6403 108.691 95.7459 110.162C95.8102 111.295 95.6095 112.427 95.1598 113.469C94.8797 114.122 94.4299 114.689 93.8571 115.11C93.6532 115.259 93.4236 115.369 93.1797 115.435Z" fill="#455A64"/>
<path d="M82.9938 146.306L71.2698 180.158L22.2374 182.762L14.0566 200.99L65.2515 206.198C67.6702 207.19 70.2651 207.682 72.8795 207.644C75.4939 207.606 78.0734 207.039 80.4622 205.977C82.8511 204.914 84.9996 203.379 86.7781 201.463C88.5566 199.548 89.9281 197.291 90.8098 194.831L104.475 156.709L82.9938 146.306Z" fill="#B78876"/>
<path d="M184.353 465.726C184.353 465.726 148.425 351.644 147.657 347.947C146.966 344.587 160.683 262.496 162.429 241.183L113.878 242.992V243.474L93.2441 244.62L111.716 477.834H134.057L131.842 400.43C145.624 437.394 165.373 475.074 165.373 475.074L184.353 465.726Z" fill="#B78876"/>
<path d="M132.755 428.202C132.755 427.499 132.482 402.266 132.482 402.266C132.208 403.776 123.923 380.366 124.119 378.947C124.223 378.205 132.755 428.202 132.755 428.202Z" fill="#A36957"/>
<path d="M123.18 367.854C123.065 368.318 123.017 368.796 123.036 369.273C122.964 370.574 122.964 371.878 123.036 373.179C123.036 373.999 123.154 374.885 123.258 375.848C123.362 376.812 123.505 377.827 123.727 378.882C124.19 381.185 124.804 383.455 125.564 385.678C127.179 390.405 128.977 394.532 130.24 397.527C130.839 398.829 131.36 400.065 131.803 401.055C131.963 401.515 132.182 401.953 132.455 402.357C132.385 401.907 132.254 401.469 132.064 401.055C131.764 400.196 131.308 398.959 130.761 397.435C129.615 394.389 127.895 390.222 126.293 385.548C125.535 383.358 124.913 381.123 124.43 378.856C124.196 377.814 124.04 376.812 123.896 375.874C123.753 374.937 123.649 374.052 123.584 373.27C123.427 371.656 123.362 370.354 123.323 369.442C123.348 368.909 123.299 368.375 123.18 367.854Z" fill="#A36957"/>
<path d="M111.3 479.019V476.922L134.188 475.92L134.253 484.578L132.846 484.669C126.554 485.034 100.865 486.102 96.6709 484.839C91.9683 483.432 111.3 479.019 111.3 479.019Z" fill="#455A64"/>
<path d="M134.553 484.058C134.423 484.066 134.292 484.066 134.162 484.058L133.042 484.136L128.9 484.318C125.408 484.461 120.576 484.591 115.248 484.617C109.92 484.644 105.074 484.552 101.57 484.448L97.4402 484.279H96.3068H95.916C96.0461 484.268 96.1767 484.268 96.3068 484.279H97.4402L101.583 484.357C105.074 484.357 109.907 484.461 115.235 484.435C120.562 484.409 125.408 484.318 128.9 484.227L133.042 484.123H134.553V484.058Z" fill="#263238"/>
<path d="M103.836 484.787C103.646 484.105 103.384 483.446 103.055 482.821C102.642 482.243 102.166 481.715 101.635 481.245C102.346 481.499 102.936 482.01 103.289 482.677C103.72 483.292 103.914 484.041 103.836 484.787Z" fill="#263238"/>
<path d="M110.583 481.362C110.583 481.362 110.206 481.011 109.867 480.49C109.528 479.969 109.32 479.514 109.385 479.474C109.45 479.435 109.763 479.813 110.101 480.334C110.44 480.855 110.648 481.323 110.583 481.362Z" fill="#263238"/>
<path d="M112.433 480.438C112.433 480.503 112.016 480.256 111.626 479.904C111.235 479.553 110.948 479.227 111 479.175C111.052 479.123 111.417 479.357 111.808 479.709C112.199 480.061 112.485 480.321 112.433 480.438Z" fill="#263238"/>
<path d="M113.593 478.225C113.21 478.365 112.801 478.418 112.394 478.381C111.996 478.434 111.59 478.394 111.209 478.264C111.588 478.124 111.993 478.071 112.394 478.107C112.798 478.052 113.208 478.093 113.593 478.225Z" fill="#263238"/>
<path d="M113.984 476.714C113.596 476.966 113.144 477.102 112.682 477.105C112.239 477.163 111.789 477.1 111.379 476.923C111.809 476.85 112.245 476.815 112.682 476.818C113.111 476.742 113.548 476.707 113.984 476.714Z" fill="#263238"/>
<path d="M109.815 479.37C109.328 479.461 108.829 479.461 108.343 479.37C107.817 479.307 107.298 479.193 106.793 479.032C106.48 478.945 106.178 478.823 105.894 478.667C105.721 478.565 105.591 478.403 105.529 478.212C105.505 478.103 105.513 477.99 105.553 477.886C105.592 477.782 105.661 477.691 105.751 477.626C106.111 477.451 106.506 477.359 106.907 477.355C107.308 477.351 107.705 477.437 108.069 477.605C108.432 477.773 108.754 478.02 109.011 478.327C109.268 478.635 109.454 478.996 109.554 479.383C109.58 479.512 109.58 479.645 109.554 479.774C109.407 479.304 109.178 478.863 108.877 478.472C108.53 478.082 108.078 477.802 107.574 477.665C106.998 477.479 106.371 477.525 105.829 477.795C105.607 477.964 105.698 478.238 105.946 478.394C106.212 478.538 106.491 478.655 106.78 478.745C107.27 478.906 107.77 479.033 108.278 479.123C109.255 479.331 109.815 479.331 109.815 479.37Z" fill="#263238"/>
<path d="M109.438 479.449C109.248 479.146 109.183 478.782 109.256 478.433C109.303 478.05 109.442 477.684 109.659 477.366C109.782 477.148 109.957 476.965 110.168 476.833C110.38 476.701 110.622 476.624 110.871 476.61C111.019 476.645 111.148 476.734 111.232 476.859C111.317 476.985 111.351 477.138 111.327 477.287C111.295 477.52 111.21 477.743 111.079 477.938C110.882 478.261 110.65 478.562 110.389 478.837C110.162 479.096 109.876 479.297 109.555 479.423C109.555 479.423 109.842 479.162 110.246 478.694C110.48 478.425 110.685 478.133 110.858 477.821C111.053 477.509 111.197 476.949 110.858 476.884C110.519 476.819 110.128 477.222 109.907 477.509C109.7 477.791 109.558 478.116 109.49 478.459C109.437 478.786 109.42 479.118 109.438 479.449Z" fill="#263238"/>
<path d="M134.07 477.834C134.07 477.834 133.418 477.834 132.389 477.899C131.049 478.059 129.781 478.592 128.729 479.437C127.676 480.281 126.882 481.404 126.436 482.677C126.097 483.654 126.071 484.318 126.019 484.305C125.967 484.292 126.019 484.136 126.019 483.849C126.053 483.43 126.131 483.015 126.254 482.612C126.668 481.279 127.465 480.098 128.546 479.214C129.641 478.346 130.97 477.825 132.363 477.717C132.796 477.665 133.233 477.665 133.666 477.717C133.805 477.738 133.941 477.778 134.07 477.834Z" fill="#263238"/>
<path d="M123.116 482.235C122.023 482.489 120.902 482.599 119.781 482.56C118.666 482.616 117.548 482.52 116.459 482.274C116.459 482.196 117.944 482.274 119.781 482.274C121.618 482.274 123.103 482.157 123.116 482.235Z" fill="#263238"/>
<path d="M127.569 482.196C127.569 482.196 127.452 482.508 127.296 482.847C127.14 483.185 127.062 483.498 126.983 483.485C126.905 483.472 126.866 483.133 127.048 482.73C127.231 482.326 127.517 482.131 127.569 482.196Z" fill="#263238"/>
<path d="M129.25 480.1C129.25 480.1 129.158 480.386 128.924 480.62C128.69 480.855 128.455 481.011 128.39 480.959C128.325 480.907 128.481 480.673 128.716 480.425C128.95 480.178 129.185 480.035 129.25 480.1Z" fill="#263238"/>
<path d="M131.648 479.136C131.648 479.214 131.335 479.214 130.996 479.331C130.658 479.449 130.423 479.631 130.358 479.579C130.293 479.527 130.488 479.214 130.905 479.071C131.322 478.928 131.674 479.058 131.648 479.136Z" fill="#263238"/>
<path d="M133.354 478.667C133.354 478.746 133.263 478.863 133.068 478.928C132.873 478.993 132.703 479.006 132.677 478.928C132.651 478.85 132.781 478.733 132.964 478.667C133.146 478.602 133.328 478.602 133.354 478.667Z" fill="#263238"/>
<path d="M164.918 477.001L164.058 475.087L184.523 464.814L188.131 472.626L186.829 473.29C181.24 476.193 158.248 487.677 153.897 488.25C149.09 488.94 164.918 477.001 164.918 477.001Z" fill="#455A64"/>
<path d="M188.208 472.066L187.87 472.274L186.867 472.795L183.167 474.67C180.041 476.219 175.69 478.316 170.831 480.529C165.972 482.742 161.517 484.63 158.286 485.971L154.443 487.521L153.401 487.924C153.281 487.98 153.154 488.019 153.023 488.041L153.375 487.872L154.404 487.416L158.208 485.789C161.426 484.409 165.855 482.482 170.714 480.269C175.573 478.055 179.937 475.998 183.089 474.488L186.815 472.704L187.844 472.222L188.208 472.066Z" fill="#263238"/>
<path d="M160.528 485.307C160.076 484.758 159.565 484.26 159.003 483.823C158.392 483.461 157.741 483.173 157.062 482.964C157.81 482.954 158.544 483.173 159.163 483.592C159.783 484.011 160.259 484.61 160.528 485.307Z" fill="#263238"/>
<path d="M165.23 479.422C165.23 479.422 164.735 479.266 164.214 478.927C163.693 478.589 163.315 478.263 163.354 478.198C163.393 478.133 163.849 478.355 164.37 478.693C164.891 479.032 165.269 479.357 165.23 479.422Z" fill="#263238"/>
<path d="M166.508 477.834C166.508 477.899 166.065 477.834 165.557 477.678C165.049 477.522 164.671 477.326 164.684 477.248C165.013 477.217 165.345 477.271 165.648 477.404C166.143 477.522 166.534 477.704 166.508 477.834Z" fill="#263238"/>
<path d="M166.69 475.334C166.69 475.412 166.26 475.686 165.661 475.972C165.315 476.179 164.928 476.308 164.527 476.35C164.527 476.271 164.957 475.998 165.543 475.712C165.894 475.505 166.285 475.376 166.69 475.334Z" fill="#263238"/>
<path d="M166.428 473.798C166.428 473.798 166.05 474.318 165.373 474.696C164.989 474.956 164.534 475.093 164.07 475.087C164.444 474.836 164.841 474.622 165.256 474.449C165.894 474.097 166.363 473.733 166.428 473.798Z" fill="#263238"/>
<path d="M163.758 477.938C163.361 478.211 162.921 478.413 162.455 478.537C161.944 478.686 161.421 478.795 160.892 478.863C160.572 478.902 160.248 478.902 159.928 478.863C159.727 478.848 159.54 478.754 159.407 478.602C159.347 478.509 159.314 478.401 159.314 478.29C159.314 478.179 159.347 478.07 159.407 477.977C159.803 477.498 160.354 477.171 160.964 477.052C161.575 476.933 162.208 477.03 162.755 477.326C163.078 477.495 163.362 477.731 163.589 478.016C163.745 478.225 163.81 478.355 163.797 478.368C163.476 478.01 163.092 477.714 162.664 477.496C162.205 477.28 161.694 477.203 161.192 477.274C160.893 477.305 160.604 477.395 160.34 477.538C160.076 477.681 159.843 477.874 159.655 478.107C159.511 478.355 159.655 478.563 160.006 478.602C160.305 478.628 160.606 478.628 160.905 478.602C161.424 478.55 161.938 478.459 162.442 478.329C163.185 478.121 163.758 477.899 163.758 477.938Z" fill="#263238"/>
<path d="M163.394 478.16C163.103 477.953 162.899 477.647 162.821 477.3C162.706 476.934 162.679 476.546 162.742 476.167C162.765 475.918 162.851 475.677 162.992 475.47C163.133 475.263 163.325 475.095 163.55 474.983C163.876 474.879 164.631 475.543 164.683 475.79C164.735 476.037 164.306 475.907 164.28 476.115C164.237 476.485 164.15 476.848 164.019 477.196C163.924 477.531 163.745 477.836 163.498 478.081C163.498 478.081 163.654 477.73 163.837 477.144C163.93 476.798 163.995 476.446 164.032 476.089C164.032 475.725 164.032 475.165 163.615 475.256C163.198 475.347 163.081 475.855 162.99 476.22C162.91 476.558 162.91 476.91 162.99 477.248C163.097 477.563 163.233 477.868 163.394 478.16Z" fill="#263238"/>
<path d="M185.213 466.584C185.213 466.584 184.588 466.806 183.702 467.34C182.544 468.032 181.601 469.033 180.98 470.23C180.377 471.439 180.12 472.791 180.237 474.136C180.316 475.178 180.563 475.777 180.511 475.803C180.427 475.674 180.361 475.533 180.316 475.386C180.186 474.987 180.095 474.578 180.042 474.162C179.855 472.776 180.096 471.365 180.731 470.118C181.366 468.872 182.366 467.848 183.598 467.183C183.967 466.979 184.355 466.814 184.758 466.689C184.904 466.632 185.057 466.597 185.213 466.584Z" fill="#263238"/>
<path d="M177.02 475.1C175.184 476.376 173.132 477.312 170.963 477.86C170.963 477.782 172.331 477.261 173.998 476.558C175.665 475.855 176.981 475.035 177.02 475.1Z" fill="#263238"/>
<path d="M181.071 473.238C181.136 473.238 181.071 473.564 181.071 473.941C181.071 474.319 181.071 474.631 181.071 474.657C181.071 474.683 180.811 474.371 180.811 473.941C180.811 473.512 181.006 473.199 181.071 473.238Z" fill="#263238"/>
<path d="M181.735 470.634C181.8 470.634 181.735 470.933 181.656 471.246C181.578 471.558 181.383 471.793 181.318 471.767C181.253 471.741 181.318 471.467 181.396 471.155C181.474 470.842 181.656 470.608 181.735 470.634Z" fill="#263238"/>
<path d="M183.533 468.72C183.533 468.798 183.272 468.915 183.012 469.163C182.751 469.41 182.608 469.67 182.543 469.644C182.478 469.618 182.543 469.254 182.829 468.954C183.116 468.655 183.52 468.72 183.533 468.72Z" fill="#263238"/>
<path d="M184.901 467.652C184.901 467.652 184.901 467.861 184.744 468.004C184.588 468.147 184.445 468.225 184.393 468.173C184.34 468.121 184.393 467.965 184.549 467.822C184.705 467.678 184.848 467.6 184.901 467.652Z" fill="#263238"/>
<path d="M159.276 202.643L155.473 156.162L175.013 156.513C175.013 156.513 175.912 149.652 173.033 134.627C171.261 125.408 165.125 119.758 158.234 116.399V116.268L157.635 116.112C151.963 113.567 145.904 111.987 139.71 111.438L115.676 111.711C115.676 111.711 97.3216 109.368 87.1999 122.505C83.2919 127.544 71.1641 162.034 71.1641 162.034L100.018 175.913L97.3216 156.787C97.3216 156.787 97.8688 170.653 99.6404 175.015C100.617 177.462 103.548 185.066 103.548 185.066L103.171 208.007L159.276 202.643Z" fill="#FFAC00"/>
<path d="M146.028 149.418L142.459 164.599H176.107L173.892 139.132L146.028 149.418Z" fill="#FFAC00"/>
<path d="M176.107 164.599C174.637 164.328 173.147 164.18 171.652 164.156C168.891 164 165.139 163.857 160.866 163.883C156.593 163.909 152.829 164.091 150.067 164.3C148.573 164.352 147.087 164.535 145.625 164.846C147.116 164.965 148.615 164.965 150.106 164.846C152.855 164.755 156.62 164.651 160.866 164.638C165.113 164.625 168.878 164.638 171.639 164.703C173.129 164.787 174.623 164.752 176.107 164.599Z" fill="#263238"/>
<path d="M144.57 139.015C144.409 140.31 144.374 141.618 144.465 142.921C144.465 145.303 144.57 148.584 144.713 152.217C144.856 155.85 145.026 159.144 145.182 161.513C145.188 162.826 145.328 164.135 145.599 165.419C145.759 164.124 145.794 162.816 145.703 161.513C145.703 159.131 145.599 155.836 145.456 152.204C145.312 148.571 145.143 145.29 144.987 142.908C144.981 141.599 144.841 140.295 144.57 139.015Z" fill="#263238"/>
<g opacity="0.3">
<path d="M113.957 152.165C113.957 152.165 121.434 207.591 142.459 206.119C142.459 206.119 151.93 206.015 154.965 199.727V197.253L113.957 152.165Z" fill="black"/>
</g>
<g opacity="0.3">
<path d="M144.57 142.283L140.545 169.455L143.15 174.221L147.449 164.898L145.625 164.846L144.57 142.283Z" fill="black"/>
</g>
<path d="M103.432 185.092C103.182 184.687 102.99 184.248 102.859 183.79C102.533 182.944 102.103 181.707 101.556 180.158C100.252 176.121 99.1775 172.013 98.3388 167.854C97.5026 163.693 96.9714 159.476 96.7495 155.237C96.6713 153.61 96.6453 152.295 96.6713 151.331C96.6378 150.861 96.6685 150.388 96.7625 149.925C96.8667 149.925 96.9449 151.93 97.2184 155.133C97.5851 159.333 98.1809 163.51 99.0031 167.646C99.967 172.489 101.126 176.825 102.012 179.936C102.429 181.382 102.781 182.619 103.067 183.634C103.246 184.104 103.369 184.594 103.432 185.092Z" fill="#263238"/>
<path d="M111.925 201.016C111.742 201.016 111.221 199.883 110.765 198.412C110.373 197.51 110.199 196.529 110.257 195.547C110.832 196.343 111.227 197.254 111.417 198.216C111.79 199.101 111.964 200.057 111.925 201.016Z" fill="#263238"/>
<path d="M114.831 200.808C113.846 198.196 113.804 195.322 114.713 192.683C114.815 194.035 114.815 195.393 114.713 196.745C114.855 198.094 114.895 199.452 114.831 200.808Z" fill="#263238"/>
<path d="M100.605 176.551C100.513 176.707 93.8046 173.53 85.6108 169.442C77.417 165.354 70.8385 161.891 70.9167 161.721C70.9949 161.552 77.7166 164.742 85.9104 168.83C94.1042 172.918 100.683 176.382 100.605 176.551Z" fill="#263238"/>
<path d="M112.433 116.204C112.576 109.615 112.615 102.689 112.615 102.689C112.615 102.689 104.161 101.061 102.689 89.9422C101.282 79.344 105.216 54.4627 105.216 54.4627C117.565 49.8016 130.396 54.0331 138.851 64.0324L136.753 117.506C136.506 123.716 130.97 128.455 124.326 128.143C117.604 127.817 112.289 122.479 112.433 116.204Z" fill="#B78876"/>
<path d="M104.565 74.3442C104.554 74.7092 104.682 75.0648 104.924 75.3383C105.166 75.6118 105.504 75.7825 105.868 75.8155C106.053 75.8334 106.239 75.8134 106.416 75.7568C106.593 75.7002 106.757 75.6082 106.897 75.4864C107.037 75.3645 107.151 75.2154 107.232 75.0482C107.312 74.8809 107.358 74.699 107.366 74.5135C107.377 74.1499 107.248 73.7958 107.006 73.5245C106.763 73.2531 106.426 73.0851 106.063 73.0553C105.878 73.0271 105.688 73.0394 105.508 73.0913C105.327 73.1431 105.16 73.2334 105.018 73.3558C104.876 73.4782 104.762 73.6299 104.683 73.8005C104.605 73.9711 104.565 74.1566 104.565 74.3442Z" fill="#263238"/>
<path d="M104.043 72.4824C104.213 72.6647 105.346 71.8965 106.844 71.9486C108.342 72.0006 109.449 72.7818 109.632 72.5996C109.814 72.4173 109.554 72.1829 109.072 71.8053C108.419 71.3331 107.636 71.0738 106.831 71.0632C106.037 71.033 105.256 71.2615 104.603 71.7142C104.121 72.0657 103.952 72.3912 104.043 72.4824Z" fill="#263238"/>
<path d="M120.079 75.3076C120.065 75.6734 120.192 76.0308 120.435 76.305C120.678 76.5791 121.017 76.7489 121.382 76.7789C121.569 76.8072 121.759 76.7946 121.941 76.742C122.122 76.6894 122.29 76.598 122.432 76.4741C122.575 76.3503 122.689 76.1969 122.766 76.0247C122.843 75.8525 122.882 75.6656 122.88 75.4769C122.895 75.1124 122.767 74.7566 122.524 74.4845C122.281 74.2124 121.941 74.0454 121.577 74.0186C121.392 73.9905 121.202 74.0028 121.022 74.0546C120.841 74.1065 120.674 74.1968 120.532 74.3192C120.39 74.4416 120.276 74.5933 120.198 74.7639C120.119 74.9345 120.079 75.12 120.079 75.3076Z" fill="#263238"/>
<path d="M119.975 73.4458C120.145 73.6411 121.278 72.8729 122.776 72.912C124.274 72.951 125.381 73.7452 125.577 73.563C125.772 73.3807 125.486 73.1463 125.004 72.7818C124.362 72.2971 123.58 72.0322 122.776 72.0266C121.979 72.0027 121.195 72.2305 120.535 72.6776C120.067 73.0291 119.897 73.3546 119.975 73.4458Z" fill="#263238"/>
<path d="M114.139 84.6299C113.339 84.3551 112.507 84.1844 111.664 84.1221C111.273 84.1221 110.908 83.9789 110.856 83.7185C110.825 83.3115 110.925 82.9052 111.143 82.5597L112.367 79.6302C113.507 77.1404 114.443 74.5627 115.168 71.9224C113.834 74.3147 112.693 76.8094 111.755 79.3828C111.351 80.4114 110.947 81.4009 110.569 82.3384C110.317 82.8035 110.234 83.3421 110.335 83.8617C110.386 84.0029 110.469 84.1303 110.578 84.2342C110.686 84.3381 110.817 84.4155 110.96 84.4606C111.176 84.5232 111.4 84.5582 111.625 84.5648C112.457 84.6928 113.301 84.7147 114.139 84.6299Z" fill="#263238"/>
<path d="M112.615 102.689C117.827 102.897 122.994 101.658 127.544 99.1084C127.544 99.1084 123.753 106.621 112.693 105.306L112.615 102.689Z" fill="#A36957"/>
<path d="M124.874 69.0062C124.561 69.4879 123.389 69.2796 122.086 69.0062C120.784 68.7328 119.637 68.5114 119.481 67.9516C119.325 67.3917 120.692 66.6496 122.438 67.0011C124.184 67.3527 125.187 68.5896 124.874 69.0062Z" fill="#263238"/>
<path d="M109.671 66.7924C109.553 67.3523 108.303 67.5606 106.87 67.6257C105.437 67.6908 104.173 67.6257 104.004 67.0528C103.835 66.4799 105.046 65.6727 106.779 65.5946C108.511 65.5164 109.788 66.2586 109.671 66.7924Z" fill="#263238"/>
<path d="M114.166 88.2885C114.002 88.2496 113.829 88.2669 113.676 88.3377C113.522 88.4085 113.397 88.5287 113.32 88.6791C113.246 88.8119 113.207 88.9618 113.209 89.1138C113.211 89.2659 113.252 89.4149 113.329 89.546C113.406 89.6771 113.516 89.7859 113.648 89.8614C113.78 89.937 113.93 89.9767 114.082 89.9767C114.234 89.9767 114.383 89.937 114.515 89.8614C114.647 89.7859 114.757 89.6771 114.834 89.546C114.911 89.4149 114.953 89.2659 114.954 89.1138C114.956 88.9618 114.918 88.8119 114.844 88.6791C114.75 88.5043 114.6 88.3664 114.418 88.2883C114.235 88.2102 114.032 88.1965 113.841 88.2495" fill="#A36957"/>
<path d="M114.517 88.4449C114.517 88.3798 114.269 88.0022 113.605 88.1455C113.406 88.1972 113.224 88.3003 113.078 88.4442C112.932 88.5882 112.826 88.768 112.771 88.9657C112.701 89.215 112.707 89.4794 112.788 89.7253C112.87 89.9711 113.022 90.1872 113.227 90.3458C113.444 90.4942 113.7 90.5736 113.963 90.5736C114.226 90.5736 114.482 90.4942 114.699 90.3458C114.872 90.2292 115.008 90.0655 115.091 89.874C115.175 89.6825 115.201 89.4713 115.168 89.2652C115.038 88.5751 114.53 88.471 114.504 88.5621C114.477 88.6532 114.686 88.8876 114.647 89.2912C114.638 89.391 114.605 89.487 114.551 89.571C114.496 89.655 114.422 89.7243 114.334 89.773C114.233 89.8312 114.119 89.8619 114.002 89.8619C113.885 89.8619 113.771 89.8312 113.67 89.773C113.579 89.6959 113.51 89.5966 113.469 89.4848C113.427 89.373 113.416 89.2525 113.435 89.135C113.45 89.0321 113.49 88.9345 113.551 88.8505C113.613 88.7666 113.694 88.6988 113.787 88.6532C114.152 88.4319 114.477 88.536 114.517 88.4449Z" fill="#263238"/>
<path d="M133.797 77.0912C132.494 80.1379 129.263 82.4945 129.706 85.7886C129.993 87.9108 131.361 89.8899 131.1 92.0252C130.762 94.6292 127.987 96.5561 127.583 99.2252C127.101 102.493 130.293 105.032 131.556 108.079C133.419 112.532 131.048 117.531 130.983 122.401C131.06 126.098 132.475 129.642 134.966 132.376C137.457 135.11 140.855 136.848 144.531 137.27C147.501 137.517 150.849 136.619 152.347 134.067C153.649 131.958 153.363 129.275 154.118 126.945C155.265 123.455 158.587 120.904 159.329 117.31C160.632 110.8 152.685 105.332 153.207 98.6654C153.428 95.814 155.187 93.3402 155.929 90.58C156.402 88.7659 156.438 86.8658 156.035 85.035C155.632 83.2043 154.801 81.4949 153.61 80.0468C151.643 77.7162 148.804 76.1408 147.097 73.6409C145.208 70.7635 145.143 67.1309 144.492 63.7327C143.617 59.6022 141.709 55.7608 138.946 52.5675C136.182 49.3742 132.654 46.9333 128.691 45.4728C124.727 44.0124 120.458 43.5801 116.283 44.2164C112.107 44.8527 108.16 46.5368 104.812 49.1112C104.812 49.1112 102.924 57.6914 111.743 59.1366C120.562 60.5819 124.639 58.9153 125.629 62.4437C125.396 63.8973 125.51 65.3854 125.963 66.7862C126.416 68.187 127.194 69.4608 128.234 70.5031C131.83 74.3831 135.256 73.5498 133.797 77.0912Z" fill="#263238"/>
<path d="M147.8 136.606C147.529 136.615 147.257 136.589 146.993 136.528C146.229 136.392 145.479 136.187 144.752 135.916C142.062 134.885 139.703 133.143 137.926 130.877C136.68 129.313 135.703 127.553 135.034 125.669C134.273 123.523 133.872 121.266 133.849 118.99C133.822 116.48 134.137 113.979 134.787 111.555C135.142 110.275 135.577 109.018 136.089 107.793C136.627 106.572 137.101 105.325 137.509 104.056C137.867 102.805 137.867 101.479 137.509 100.228C137.128 98.9965 136.635 97.8025 136.037 96.6604C135.433 95.528 134.924 94.3479 134.513 93.132C134.112 91.9286 134.018 90.6442 134.239 89.3953C134.761 86.9475 136.246 85.1247 137.131 83.2628C137.975 81.5394 138.378 79.6336 138.304 77.7163C138.185 74.9105 137.167 72.2172 135.399 70.0345C134.714 69.2699 133.978 68.5522 133.197 67.8862C134.111 68.3992 134.927 69.0691 135.607 69.8653C137.505 72.0447 138.623 74.7929 138.786 77.6773C138.893 79.6781 138.499 81.6742 137.639 83.4842C136.741 85.4111 135.295 87.247 134.852 89.4864C134.409 91.7258 135.464 94.0825 136.623 96.348C137.256 97.5227 137.77 98.7569 138.16 100.033C138.545 101.395 138.545 102.837 138.16 104.199C137.727 105.513 137.227 106.803 136.662 108.066C136.15 109.265 135.715 110.496 135.36 111.751C134.713 114.113 134.393 116.553 134.409 119.003C134.368 123.174 135.716 127.241 138.239 130.565C139.926 132.803 142.172 134.558 144.752 135.655C146.693 136.41 147.813 136.528 147.8 136.606Z" fill="#455A64"/>
<path d="M146.497 70.9071C145.862 71.0713 145.212 71.1674 144.556 71.1935C142.769 71.3846 140.964 71.3364 139.189 71.0503C137.844 70.8512 136.552 70.3859 135.389 69.6817C134.226 68.9775 133.215 68.0484 132.415 66.949C131.67 65.558 131.077 64.0914 130.644 62.5742C130.088 61.0588 129.043 59.7716 127.674 58.9156C124.821 57.1059 121.473 56.8845 118.555 56.533C115.863 56.3989 113.25 55.5835 110.96 54.1633C109.427 53.1477 108.319 51.605 107.847 49.8277C107.733 49.346 107.703 48.8485 107.756 48.3564C107.756 48.0179 107.834 47.8486 107.86 47.8486C107.875 48.4935 107.958 49.135 108.108 49.7626C108.647 51.4244 109.753 52.8439 111.234 53.7727C113.482 55.0835 116.019 55.8171 118.62 55.908C121.538 56.2465 125.003 56.4158 128.051 58.3427C129.543 59.279 130.68 60.6855 131.282 62.3399C131.69 63.8186 132.253 65.25 132.962 66.6105C134.48 68.6908 136.753 70.0933 139.293 70.5165C141.011 70.8355 142.759 70.9535 144.504 70.868C145.168 70.8307 145.835 70.8437 146.497 70.9071Z" fill="#455A64"/>
<path d="M143.267 60.3085C142.776 60.4726 142.26 60.5475 141.742 60.5298C139.314 60.5462 136.976 59.6115 135.229 57.9258C134.432 57.1272 133.752 56.2198 133.21 55.2307C132.038 53.2517 130.904 50.8169 128.468 49.8014C126.121 49.0144 123.621 48.7958 121.173 49.1634C119.108 49.4534 117.012 49.4534 114.947 49.1634C113.51 48.9641 112.156 48.369 111.039 47.4447C110.75 47.193 110.496 46.9041 110.283 46.5854C110.127 46.3597 110.062 46.2426 110.088 46.2339C110.088 46.2339 110.452 46.6505 111.208 47.2364C112.322 48.0283 113.616 48.5295 114.973 48.6947C117.001 48.9232 119.05 48.8882 121.069 48.5905C123.624 48.1735 126.243 48.3972 128.69 49.2415C129.948 49.8065 131.025 50.7076 131.803 51.8455C132.49 52.8605 133.12 53.9124 133.692 54.9963C134.206 55.9427 134.841 56.818 135.581 57.6003C136.235 58.2619 136.986 58.8195 137.808 59.2539C139.02 59.8862 140.352 60.2545 141.716 60.3345C142.719 60.3215 143.254 60.2434 143.267 60.3085Z" fill="#455A64"/>
<path d="M151.683 133.794C151.618 133.794 152.035 132.934 152.517 131.32C153.169 129.053 153.46 126.698 153.377 124.341C153.282 120.852 152.329 117.44 150.602 114.407C149.651 112.701 148.205 111.178 147.02 109.303C146.393 108.348 145.951 107.284 145.717 106.165C145.512 104.988 145.61 103.778 146.004 102.65C146.733 100.397 148.036 98.5095 148.322 96.4393C148.609 94.3692 147.619 92.5333 146.629 90.8017C146.118 89.959 145.653 89.0898 145.235 88.1977C144.854 87.3324 144.604 86.4153 144.492 85.4765C144.37 83.822 144.422 82.1593 144.649 80.5159C145.065 78.1927 144.849 75.8003 144.023 73.5892C143.655 72.8147 143.132 72.1235 142.486 71.5581C142.486 71.5581 142.551 71.5581 142.643 71.6362C142.797 71.7128 142.938 71.8139 143.06 71.9357C143.569 72.3599 143.982 72.8882 144.271 73.4851C145.213 75.7151 145.507 78.1656 145.118 80.5549C144.938 82.1678 144.916 83.7943 145.053 85.4114C145.374 87.2305 146.095 88.9558 147.163 90.4631C147.719 91.343 148.194 92.2712 148.583 93.2364C148.993 94.2783 149.128 95.4084 148.974 96.5175C148.661 98.796 147.319 100.723 146.642 102.845C146.286 103.869 146.192 104.966 146.368 106.035C146.596 107.07 147.011 108.054 147.593 108.939C148.7 110.748 150.198 112.298 151.149 114.081C152.894 117.217 153.826 120.74 153.859 124.328C153.9 126.73 153.53 129.121 152.764 131.398C152.556 132.014 152.303 132.615 152.009 133.195C151.929 133.409 151.82 133.611 151.683 133.794Z" fill="#455A64"/>
<path d="M98.6254 376.395C98.6254 376.395 89.8455 293.276 89.3374 262.561C88.8294 231.847 103.159 201.537 103.159 201.537L159.278 199.206C159.278 199.206 170.376 230.363 170.572 243.474C170.962 268.915 163.811 294.031 164.632 314.212L166.507 376.447" fill="#263238"/>
<path d="M168.396 274.201C168.103 274.455 167.794 274.69 167.471 274.904L166.963 275.256L166.415 275.79C165.933 276.207 165.497 276.674 165.113 277.183C163.302 279.396 161.986 283.367 160.723 288.302C160.077 291.039 159.125 293.694 157.883 296.218C157.506 296.909 157.07 297.567 156.58 298.184C156.346 298.496 156.124 298.835 155.851 299.134L154.991 299.994C153.76 301.144 152.33 302.061 150.771 302.702C147.631 304.082 144.075 304.733 140.844 306.361C137.534 308.14 134.977 311.052 133.64 314.563C132.051 318.092 131.035 321.789 129.732 325.253C128.43 328.716 126.671 332.023 123.87 334.132C121.193 335.992 118.013 336.996 114.752 337.01C111.73 337.192 108.929 337.101 106.415 337.478C104.152 337.713 101.989 338.529 100.136 339.848C98.7824 340.906 97.7682 342.336 97.2178 343.962C96.8685 344.988 96.7922 346.088 96.9964 347.152C97.1527 347.881 97.3481 348.233 97.309 348.246C97.0994 347.919 96.9494 347.558 96.8662 347.178C96.5913 346.092 96.6274 344.951 96.9703 343.884C97.488 342.177 98.5096 340.666 99.9013 339.549C101.801 338.116 104.05 337.217 106.415 336.945C109.02 336.528 111.795 336.58 114.778 336.385C117.943 336.364 121.027 335.383 123.623 333.572C126.255 331.273 128.199 328.29 129.237 324.953C130.54 321.529 131.491 317.818 133.145 314.225C134.547 310.569 137.221 307.542 140.675 305.697C144.036 304.03 147.592 303.392 150.653 302.064C152.152 301.444 153.528 300.562 154.718 299.46L155.538 298.64C155.799 298.353 156.02 298.028 156.255 297.728C156.714 297.136 157.119 296.505 157.466 295.84C158.714 293.352 159.68 290.732 160.345 288.028C161.648 283.107 163.068 279.084 164.983 276.857C165.364 276.35 165.801 275.887 166.285 275.477C166.494 275.295 166.676 275.113 166.858 274.969L167.392 274.631C167.718 274.468 168.053 274.324 168.396 274.201Z" fill="#FAFAFA"/>
<path d="M168.734 235.74C168.794 236.106 168.82 236.476 168.812 236.847C168.808 237.922 168.677 238.993 168.421 240.037C167.299 243.846 165.096 247.247 162.077 249.828C160.085 251.658 157.901 253.269 155.564 254.632C153.05 256.117 150.275 257.536 147.422 259.15C144.426 260.756 141.635 262.719 139.111 264.996C136.522 267.564 134.39 270.553 132.806 273.837C131.209 277.165 129.385 280.38 127.348 283.459C126.313 284.893 125.115 286.204 123.779 287.365C122.461 288.485 121.014 289.442 119.467 290.216C116.668 291.59 113.752 292.71 110.752 293.562C107.964 294.421 105.359 295.19 103.092 296.166C101.035 296.984 99.0776 298.032 97.2565 299.291C95.8865 300.241 94.6547 301.376 93.596 302.663C92.7098 303.78 91.97 305.005 91.3945 306.309C91.4873 305.948 91.6093 305.595 91.7592 305.254C92.1862 304.27 92.7332 303.343 93.3876 302.494C94.4268 301.152 95.6555 299.968 97.0351 298.978C98.8642 297.675 100.835 296.583 102.91 295.723C105.42 294.701 107.981 293.81 110.583 293.054C113.539 292.182 116.416 291.058 119.18 289.695C120.647 288.931 122.023 288.005 123.284 286.935C124.569 285.791 125.723 284.507 126.723 283.107C128.732 280.043 130.538 276.851 132.129 273.55C133.763 270.194 135.967 267.145 138.642 264.54C141.21 262.229 144.054 260.244 147.11 258.629C149.975 257.028 152.75 255.635 155.264 254.164C157.595 252.846 159.779 251.283 161.778 249.502C164.771 246.999 166.993 243.699 168.187 239.985C168.521 238.594 168.705 237.171 168.734 235.74Z" fill="#FAFAFA"/>
<path d="M89.6238 266.91C89.5722 266.829 89.5326 266.742 89.5065 266.649C89.4089 266.398 89.3262 266.142 89.259 265.881C89.0356 264.846 89.0804 263.77 89.3892 262.756C90.1187 260.152 92.9977 256.806 97.6351 255.153C99.9539 254.359 102.572 253.851 105.308 253.174C107.58 252.797 109.728 251.884 111.575 250.509C113.422 249.134 114.913 247.338 115.925 245.271C116.665 243.753 117.314 242.192 117.866 240.596C118.884 237.131 120.268 233.783 121.995 230.61C123.974 227.491 126.977 225.157 130.488 224.009C133.683 222.973 136.943 222.147 140.245 221.535C143.193 220.97 146.047 219.997 148.726 218.645C150.995 217.349 152.951 215.571 154.457 213.437C156.682 210.355 157.95 206.687 158.105 202.891C158.111 201.497 158.019 200.105 157.831 198.724C158.225 200.077 158.405 201.482 158.365 202.891C158.315 206.77 157.089 210.542 154.848 213.71C153.323 215.915 151.325 217.752 148.999 219.087C146.285 220.49 143.386 221.502 140.389 222.095C137.117 222.716 133.888 223.546 130.723 224.582C127.351 225.686 124.468 227.927 122.568 230.923C120.869 234.052 119.503 237.351 118.491 240.766C117.928 242.39 117.262 243.978 116.498 245.518C115.726 246.998 114.743 248.357 113.58 249.554C111.292 251.64 108.476 253.058 105.438 253.656C102.676 254.359 100.071 254.801 97.7915 255.556C93.2712 257.093 90.4053 260.257 89.6368 262.782C89.321 263.757 89.2362 264.791 89.3892 265.803C89.4994 266.165 89.5779 266.535 89.6238 266.91Z" fill="#FAFAFA"/>
<path d="M163.915 337.218C163.968 337.488 163.999 337.763 164.006 338.038C164.031 338.827 163.948 339.615 163.759 340.382C162.94 343.205 161.209 345.677 158.835 347.412C157.25 348.675 155.496 349.709 153.624 350.485C151.631 351.331 149.43 352.008 147.111 352.725C144.704 353.427 142.349 354.298 140.063 355.329C137.689 356.462 135.56 358.05 133.798 360.003C131.896 361.982 130.254 364.156 128.431 366.083C126.686 367.95 124.66 369.531 122.425 370.77C118.623 372.844 114.369 373.953 110.037 373.999C107.136 374.031 104.252 373.55 101.518 372.58C100.775 372.325 100.053 372.016 99.3551 371.656C99.101 371.55 98.8604 371.415 98.6387 371.252C98.9012 371.324 99.1581 371.416 99.4072 371.525C100.123 371.831 100.853 372.101 101.596 372.333C104.325 373.188 107.177 373.588 110.037 373.518C114.273 373.408 118.42 372.278 122.126 370.223C124.29 368.998 126.254 367.448 127.949 365.627C129.733 363.727 131.362 361.565 133.303 359.534C135.17 357.508 137.418 355.871 139.92 354.717C142.24 353.681 144.63 352.811 147.072 352.113C149.365 351.41 151.553 350.811 153.585 349.951C155.403 349.208 157.112 348.222 158.666 347.022C161 345.374 162.74 343.018 163.629 340.304C163.821 339.286 163.917 338.253 163.915 337.218Z" fill="#FAFAFA"/>
<path d="M157.518 164.651L146.653 164.911C146.235 167.101 145.404 169.191 144.204 171.07C135.086 155.316 128.09 134.223 126.345 125.747C126.605 124.901 126.905 123.963 127.283 122.922C127.554 121.34 127.505 119.719 127.139 118.156C126.827 116.269 126.306 113.73 126.149 112.558C125.667 108.964 125.081 108.404 123.831 108.808C122.137 109.368 124.534 118.873 123.14 119.081C122.385 119.185 121.473 115.93 121.212 113.261C120.952 110.592 119.727 102.363 118.855 101.816C117.552 101.009 116.418 102.285 116.757 104.941C117.096 107.597 117.5 115.67 116.093 115.787C114.686 115.904 113.487 102.259 113.487 102.259C113.487 102.259 113.709 99.2904 112.068 99.3555C109.124 99.4857 111.429 113.86 111.677 115.227C111.859 116.164 110.374 116.347 110.192 115.318C110.009 114.29 109.332 101.686 106.284 101.79C103.965 101.79 108.068 113.625 106.766 116.36C105.463 119.094 104.577 107.089 102.376 107.246C101.555 107.311 100.943 107.467 102.454 114.25C103.901 119.64 105.641 124.947 107.665 130.148C111.156 148.962 126.475 209.153 150.483 198.138C163.927 191.967 169.372 164.651 169.372 164.651H157.518Z" fill="#B78876"/>
<path d="M111.209 116.138C111.312 116.164 111.419 116.164 111.522 116.138C111.679 116.09 111.814 115.988 111.902 115.849C111.99 115.711 112.026 115.546 112.004 115.383C112.004 114.576 111.847 113.404 111.665 111.881C111.36 110.045 111.16 108.193 111.066 106.334C111.066 105.241 111.066 104.069 111.131 102.832C111.15 102.203 111.216 101.576 111.326 100.957C111.431 100.371 111.821 99.655 112.277 99.7722H112.355C112.811 99.7722 113.176 100.111 113.32 100.658C113.481 101.224 113.542 101.814 113.502 102.402C113.77 106.049 114.236 109.678 114.896 113.274C115 113.756 115.104 114.25 115.26 114.745C115.33 114.998 115.417 115.246 115.521 115.487C115.588 115.621 115.662 115.752 115.742 115.878C115.801 115.973 115.881 116.053 115.976 116.112C116.071 116.171 116.178 116.207 116.29 116.216C116.479 116.196 116.659 116.119 116.805 115.996C116.951 115.873 117.057 115.71 117.11 115.526C117.222 115.272 117.305 115.005 117.358 114.732C117.459 114.207 117.529 113.677 117.566 113.144C117.685 110.974 117.654 108.799 117.475 106.634C117.31 105.553 117.266 104.456 117.345 103.366C117.392 102.895 117.621 102.46 117.983 102.155C118.067 102.105 118.16 102.074 118.256 102.062C118.353 102.051 118.45 102.061 118.543 102.09C118.654 102.116 118.759 102.16 118.856 102.22C118.922 102.269 118.972 102.337 118.999 102.415C119.409 103.471 119.711 104.566 119.898 105.683C120.132 106.829 120.328 108.014 120.51 109.199C120.693 110.383 120.862 111.581 121.005 112.792C121.117 114.042 121.317 115.282 121.604 116.503C121.758 117.127 121.954 117.741 122.191 118.339C122.324 118.673 122.508 118.985 122.738 119.263C122.826 119.379 122.945 119.467 123.081 119.517C123.217 119.568 123.364 119.579 123.506 119.55C123.638 119.506 123.757 119.429 123.85 119.327C123.944 119.224 124.009 119.099 124.04 118.964C124.194 118.298 124.243 117.613 124.184 116.933C124.184 116.282 124.106 115.631 124.04 115.006C123.949 113.912 123.845 112.831 123.806 111.764C123.773 111.239 123.773 110.713 123.806 110.188C123.832 109.956 123.889 109.728 123.975 109.511C124.002 109.44 124.042 109.373 124.093 109.316H124.262C125.122 108.964 125.408 110.162 125.643 111.126C125.877 112.089 125.968 113.183 126.177 114.211C126.516 116.255 126.958 118.3 127.18 120.253C127.331 121.188 127.295 122.143 127.076 123.065C126.763 124.002 126.45 124.927 126.151 125.851V125.942V126.02C127.677 132.417 129.622 138.706 131.974 144.847C134.032 150.407 136.103 155.263 137.914 159.169C139.724 163.075 141.366 166.135 142.486 168.192L143.789 170.523C143.93 170.801 144.1 171.062 144.297 171.304C144.187 171.015 144.052 170.736 143.893 170.471L142.59 168.088C141.522 165.992 139.985 162.88 138.213 158.974C136.442 155.068 134.436 150.212 132.43 144.652C130.134 138.52 128.228 132.249 126.724 125.877V126.06C127.024 125.148 127.323 124.224 127.636 123.299C127.907 122.285 127.96 121.224 127.792 120.188C127.558 118.143 127.128 116.164 126.789 114.107C126.594 113.092 126.463 112.05 126.255 110.982C126.242 110.434 126.149 109.89 125.981 109.368C125.833 109.05 125.58 108.793 125.265 108.639C124.931 108.529 124.57 108.529 124.236 108.639H124.027C123.917 108.674 123.815 108.732 123.728 108.808C123.583 108.931 123.471 109.087 123.402 109.264C123.283 109.546 123.208 109.844 123.181 110.149C123.142 110.713 123.142 111.278 123.181 111.842C123.181 112.935 123.337 114.029 123.428 115.123C123.428 115.761 123.532 116.425 123.558 117.011C123.61 117.598 123.579 118.19 123.467 118.768C123.467 118.899 123.363 118.872 123.467 118.938L123.389 118.859C123.223 118.647 123.091 118.41 122.998 118.156C122.771 117.593 122.584 117.014 122.438 116.425C122.152 115.239 121.956 114.033 121.852 112.818C121.713 111.594 121.544 110.383 121.344 109.186C121.162 107.988 120.953 106.816 120.719 105.644C120.522 104.451 120.19 103.285 119.729 102.168C119.639 101.981 119.499 101.823 119.325 101.712C119.173 101.624 119.011 101.554 118.843 101.504C118.657 101.455 118.464 101.444 118.273 101.471C118.083 101.497 117.9 101.562 117.735 101.66C117.467 101.861 117.243 102.115 117.077 102.406C116.911 102.697 116.807 103.019 116.772 103.353C116.687 103.944 116.687 104.545 116.772 105.136C116.772 105.696 116.902 106.243 116.941 106.79C117.122 108.92 117.161 111.06 117.058 113.196C117.028 113.703 116.962 114.208 116.863 114.706C116.825 114.939 116.76 115.166 116.667 115.383C116.634 115.469 116.585 115.548 116.524 115.617C116.524 115.735 116.433 115.617 116.446 115.774C116.446 115.644 116.446 115.774 116.446 115.604C116.388 115.517 116.336 115.425 116.29 115.331C116.198 115.123 116.12 114.888 116.042 114.667C115.899 114.198 115.795 113.717 115.69 113.248C115.011 109.683 114.519 106.084 114.218 102.467C114.257 101.813 114.182 101.156 113.997 100.527C113.911 100.199 113.735 99.9016 113.489 99.668C113.361 99.5449 113.21 99.449 113.044 99.3864C112.879 99.3237 112.702 99.2955 112.525 99.3034H112.603C112.382 99.2712 112.157 99.3046 111.956 99.3996C111.754 99.4945 111.585 99.6468 111.47 99.8372C111.276 100.148 111.143 100.493 111.079 100.853C110.969 101.498 110.908 102.151 110.896 102.806C110.896 104.108 110.896 105.241 110.896 106.347C111.02 108.218 111.259 110.079 111.613 111.92C111.834 113.43 112.004 114.602 112.082 115.396C112.107 115.535 112.083 115.679 112.014 115.802C111.945 115.925 111.836 116.021 111.704 116.073C111.313 116.112 111.196 116.125 111.209 116.138Z" fill="#A36957"/>
<path d="M26.366 182.58C23.8238 182.525 21.2861 182.819 18.8235 183.452C12.0887 185.223 0.481987 192.253 0 200.938H8.44125C8.44125 200.938 3.7126 210.989 5.09343 210.052C8.70182 207.63 15.8665 200.352 15.8665 200.352L26.366 182.58Z" fill="#B78876"/>
<path d="M141.431 31.248C141.235 31.248 140.48 24.2953 139.724 15.624C138.969 6.95268 138.5 0 138.682 0C138.864 0 139.633 6.95268 140.388 15.624C141.144 24.2953 141.613 31.248 141.431 31.248Z" fill="#263238"/>
<path d="M178.439 0.53371C178.583 0.63787 172.89 8.90556 165.712 18.9961C158.535 29.0866 152.581 37.2241 152.425 37.0678C152.269 36.9116 157.974 28.696 165.152 18.6055C172.33 8.51497 178.283 0.42955 178.439 0.53371Z" fill="#263238"/>
<path d="M193.811 38.0053C193.811 38.1876 187.194 39.7109 178.961 41.4035C170.728 43.0961 164.006 44.32 163.967 44.1377C163.928 43.9554 170.572 42.4321 178.817 40.7395C187.063 39.0469 193.72 37.823 193.811 38.0053Z" fill="#263238"/>
</svg>
