<svg width="978" height="652" viewBox="0 0 978 652" fill="none" xmlns="http://www.w3.org/2000/svg">
<g clip-path="url(#clip0_4_1889)">
<path d="M355.374 364.757L353.719 375.017L281.057 364.549L282.711 354.289L355.374 364.757Z" fill="#E0E0E0"/>
<path d="M318.781 328.158L329.202 329.655L317.647 401.161L307.213 399.651L318.781 328.158Z" fill="#E0E0E0"/>
<path d="M251.915 237.278C252.02 237.421 237.378 247.408 219.205 259.542C201.033 271.677 186.222 281.416 186.118 281.26C186.014 281.104 200.656 271.13 218.828 258.983C237 246.835 251.746 237.122 251.915 237.278Z" fill="#E0E0E0"/>
<path d="M305.612 223.789C305.716 223.945 281.356 240.403 251.212 260.558C221.069 280.713 196.5 296.923 196.422 296.779C196.344 296.636 220.652 280.153 250.834 259.998C281.017 239.843 305.507 223.633 305.612 223.789Z" fill="#E0E0E0"/>
<path d="M316.385 239.882C316.489 240.038 292.129 256.509 261.986 276.663C231.842 296.818 207.274 313.028 207.196 312.872C207.117 312.716 231.451 296.259 261.608 276.091C291.765 255.923 316.281 239.726 316.385 239.882Z" fill="#E0E0E0"/>
<path d="M327.158 255.988C327.262 256.144 302.903 272.614 272.759 292.756C242.615 312.898 218.047 329.134 218.047 328.978C218.047 328.822 242.289 312.352 272.446 292.197C302.603 272.042 327.054 255.832 327.158 255.988Z" fill="#E0E0E0"/>
<path d="M337.891 272.094C337.996 272.25 313.636 288.707 283.492 308.862C253.348 329.017 228.78 345.227 228.715 345.071C228.65 344.915 252.997 328.457 283.179 308.303C313.362 288.148 337.891 271.938 337.891 272.094Z" fill="#E0E0E0"/>
<path d="M833.166 476.104L831.772 484.723L770.742 475.935L772.149 467.315L833.166 476.104Z" fill="#E0E0E0"/>
<path d="M802.435 445.364L811.189 446.627L801.484 506.675L792.717 505.412L802.435 445.364Z" fill="#E0E0E0"/>
<path d="M746.226 369.105C746.33 369.262 734.046 377.66 718.779 387.854C703.511 398.049 691.058 406.199 690.954 406.082C690.85 405.965 703.147 397.541 718.401 387.333C733.655 377.126 746.122 368.884 746.226 369.105Z" fill="#E0E0E0"/>
<path d="M791.362 357.713C791.467 357.869 771.028 371.723 745.769 388.636C720.51 405.549 699.837 419.168 699.733 419.011C699.629 418.855 720.067 405.002 745.326 388.076C770.585 371.15 791.219 357.557 791.362 357.713Z" fill="#E0E0E0"/>
<path d="M800.417 371.228C800.521 371.384 780.082 385.237 754.824 402.163C729.565 419.089 708.892 432.682 708.788 432.526C708.683 432.37 729.057 418.581 754.381 401.655C779.705 384.729 800.339 371.084 800.417 371.228Z" fill="#E0E0E0"/>
<path d="M809.456 384.729C809.56 384.886 789.109 398.739 763.863 415.665C738.617 432.591 717.931 446.184 717.827 446.028C717.722 445.871 738.161 432.031 763.42 415.092C788.679 398.153 809.365 384.599 809.456 384.729Z" fill="#E0E0E0"/>
<path d="M818.575 398.284C818.68 398.44 798.241 412.28 772.982 429.206C747.723 446.132 727.05 459.725 726.946 459.582C726.841 459.438 747.28 445.572 772.539 428.646C797.798 411.72 818.406 398.127 818.575 398.284Z" fill="#E0E0E0"/>
<path d="M453.073 303.186L444.58 306.089L423.008 246.497L431.514 243.58L453.073 303.186Z" fill="#E0E0E0"/>
<path d="M466.1 260.428L469.2 268.982L409.981 289.254L406.881 280.7L466.1 260.428Z" fill="#E0E0E0"/>
<path d="M508.176 172.504C508.072 172.699 494.498 165.642 477.837 156.75C461.176 147.857 447.771 140.475 447.876 140.279C447.98 140.084 461.567 147.141 478.228 156.034C494.889 164.926 508.28 172.296 508.176 172.504Z" fill="#E0E0E0"/>
<path d="M540.326 207.957C540.222 208.153 517.738 196.33 490.109 181.566C462.479 166.801 440.177 154.666 440.282 154.471C440.386 154.276 462.857 166.085 490.486 180.863C518.116 195.64 540.431 207.762 540.326 207.957Z" fill="#E0E0E0"/>
<path d="M532.432 222.709C532.328 222.904 509.844 211.095 482.214 196.317C454.585 181.54 432.283 169.418 432.387 169.223C432.491 169.027 454.962 180.849 482.592 195.614C510.221 210.379 532.536 222.513 532.432 222.709Z" fill="#E0E0E0"/>
<path d="M524.537 237.46C524.433 237.656 501.949 225.847 474.32 211.082C446.69 196.317 424.388 184.222 424.493 183.987C424.597 183.753 447.068 195.601 474.697 210.366C502.327 225.13 524.642 237.265 524.537 237.46Z" fill="#E0E0E0"/>
<path d="M516.643 252.212C516.539 252.407 494.055 240.598 466.425 225.833C438.796 211.069 416.481 198.934 416.598 198.739C416.715 198.543 439.173 210.353 466.803 225.117C494.432 239.882 516.747 252.017 516.643 252.212Z" fill="#E0E0E0"/>
<path opacity="0.2" d="M517.334 0.639648H513.973V57.9016H517.334V0.639648Z" fill="black"/>
<path d="M437.193 127.181H594.113C594.113 127.181 579.627 57.9277 514.468 57.9277C456.512 57.9277 437.193 127.181 437.193 127.181Z" fill="#FFAC00"/>
<path d="M517.334 0.639648H513.973V57.9016H517.334V0.639648Z" fill="#FFAC00"/>
<path d="M865.041 573.298C865.041 573.481 696.671 573.637 489.013 573.637C281.355 573.637 112.959 573.52 112.959 573.298C112.959 573.077 281.303 572.96 489.013 572.96C696.723 572.96 865.041 573.103 865.041 573.298Z" fill="#263238"/>
<path d="M154.592 491.754C156.794 491.913 158.942 492.514 160.907 493.52C162.872 494.527 164.614 495.919 166.029 497.613C168.843 501.022 170.835 505.031 171.852 509.331C174.054 517.56 172.699 527.286 170.354 535.475C161.444 532.285 155.934 522.781 153.42 517.781C149.512 509.891 147.18 493.225 154.553 491.741" fill="#FFAC00"/>
<path d="M183.186 545.462C181.848 543.388 181.083 540.997 180.968 538.532C180.854 536.066 181.394 533.615 182.534 531.426C183.71 529.258 185.307 527.346 187.23 525.801C189.154 524.256 191.366 523.11 193.737 522.429C195.913 521.752 198.44 521.479 200.329 522.742C201.18 523.385 201.843 524.246 202.249 525.233C202.654 526.22 202.788 527.297 202.634 528.353C202.293 530.469 201.393 532.455 200.029 534.108C195.691 539.98 190.428 544.863 183.094 545.462" fill="#FFAC00"/>
<path d="M184.177 572.973C183.983 572.42 183.848 571.848 183.773 571.267C183.538 570.043 183.226 568.468 182.848 566.58C181.679 561.411 181.353 556.086 181.884 550.813C182.498 545.514 184.517 540.475 187.733 536.218C188.715 534.944 189.848 533.795 191.107 532.793C191.449 532.522 191.805 532.27 192.175 532.038C192.293 531.941 192.424 531.861 192.566 531.804C190.918 533.211 189.413 534.776 188.072 536.478C185.026 540.74 183.108 545.702 182.496 550.904C181.662 556.971 182.692 562.531 183.291 566.528C183.603 568.52 183.864 570.135 184.007 571.254C184.11 571.822 184.166 572.396 184.177 572.973Z" fill="#263238"/>
<path d="M157.459 504.292C157.608 504.498 157.73 504.721 157.824 504.957C158.058 505.477 158.371 506.128 158.736 506.949C159.53 508.68 160.637 511.193 161.979 514.305C164.663 520.541 168.258 529.213 172.01 538.874C175.761 548.534 178.953 557.349 181.128 563.768C182.249 566.971 183.122 569.575 183.734 571.385C184.007 572.244 184.216 572.934 184.385 573.468C184.478 573.707 184.544 573.956 184.581 574.21C184.448 573.989 184.343 573.753 184.268 573.507C184.072 572.986 183.825 572.309 183.499 571.463L180.751 563.911C178.419 557.544 175.162 548.743 171.424 539.095C167.685 529.447 164.142 520.75 161.562 514.474C160.26 511.388 159.257 508.876 158.514 507.04C158.175 506.206 157.902 505.542 157.693 505.009C157.596 504.777 157.517 504.537 157.459 504.292Z" fill="#263238"/>
<path d="M173.586 554.771C170.905 550.311 167.201 546.552 162.78 543.806C158.358 541.06 153.346 539.405 148.158 538.978C145.552 538.796 142.348 539.238 141.176 541.582C140.003 543.926 141.566 546.79 143.364 548.691C147.184 552.685 152.1 555.459 157.495 556.663C162.889 557.868 168.52 557.45 173.677 555.461" fill="#FFAC00"/>
<path d="M152.17 546.034C152.722 546.007 153.276 546.029 153.824 546.1C154.467 546.134 155.106 546.208 155.739 546.321C156.482 546.464 157.355 546.542 158.266 546.803C159.286 547.018 160.291 547.296 161.276 547.636C162.417 548.002 163.535 548.437 164.623 548.938C167.128 550.059 169.496 551.461 171.684 553.117C173.846 554.812 175.804 556.752 177.52 558.898C178.261 559.832 178.944 560.81 179.565 561.828C180.127 562.706 180.64 563.614 181.102 564.549C181.494 565.31 181.842 566.092 182.144 566.892C182.406 567.485 182.627 568.094 182.809 568.715C183.002 569.234 183.146 569.771 183.239 570.317C183.095 570.317 182.47 568.077 180.711 564.744C180.233 563.849 179.706 562.98 179.135 562.14C178.5 561.154 177.813 560.202 177.077 559.289C173.67 555.081 169.325 551.727 164.389 549.498C163.256 549.003 162.174 548.534 161.119 548.196C160.151 547.843 159.163 547.543 158.162 547.297C154.515 546.295 152.157 546.178 152.17 546.034Z" fill="#263238"/>
<path d="M349.628 368.961L303.514 605.665L297.521 636.652L604.951 635.168C618.759 635.103 631.004 622.851 635.42 604.649L689.95 381.187C693.324 367.373 685.925 352.999 675.451 353.012L364.218 353.337C357.444 353.324 351.374 359.73 349.628 368.961Z" fill="#FFAC00"/>
<g opacity="0.5">
<path d="M349.628 368.961L303.514 605.665L297.521 636.652L604.951 635.168C618.759 635.103 631.004 622.851 635.42 604.649L689.95 381.187C693.324 367.373 685.925 352.999 675.451 353.012L364.218 353.337C357.444 353.324 351.374 359.73 349.628 368.961Z" fill="black"/>
</g>
<path d="M575.498 589.598L542.931 327.363C541.628 316.621 533.044 308.601 522.922 308.64L451.536 308.861C448.883 308.891 446.264 309.461 443.838 310.535C441.413 311.609 439.232 313.166 437.428 315.111L403.559 351.137L205.032 352.205C192.904 352.27 183.577 363.753 185.18 376.643L215.414 619.011C216.717 629.739 225.302 637.746 235.397 637.733L581.451 637.043C619.984 637.837 623.67 626.471 623.67 626.471C579.432 636.249 575.498 589.663 575.498 589.598Z" fill="#FFAC00"/>
<g opacity="0.5">
<path d="M426.277 537.154L414.605 549.679L324.721 468.851L336.393 456.326L426.277 537.154Z" fill="white"/>
<path d="M409.719 453.552L422.616 465.153L341.29 552.452L328.381 540.851L409.719 453.552Z" fill="white"/>
</g>
<path d="M665.277 135.761C664.855 135.583 664.493 135.289 664.232 134.914C663.971 134.538 663.823 134.096 663.805 133.639L663.284 121.556C663.265 121.181 663.334 120.806 663.486 120.462C663.637 120.118 663.867 119.814 664.156 119.574C664.446 119.334 664.787 119.165 665.153 119.079C665.52 118.994 665.901 118.995 666.267 119.082C667.275 119.3 668.318 119.309 669.33 119.11C670.343 118.911 671.304 118.507 672.155 117.923C672.938 117.428 673.612 116.777 674.134 116.011C674.656 115.245 675.015 114.381 675.19 113.471C675.308 112.549 675.24 111.613 674.989 110.719C674.738 109.824 674.31 108.989 673.731 108.263C673.12 107.436 672.353 106.738 671.472 106.209C670.591 105.679 669.615 105.329 668.598 105.177C666.549 105.063 664.52 105.644 662.842 106.825C661.163 108.007 659.933 109.72 659.349 111.687C659.155 112.283 658.738 112.781 658.185 113.077C657.632 113.374 656.986 113.445 656.382 113.278C655.777 113.11 655.261 112.715 654.94 112.177C654.619 111.638 654.519 110.996 654.66 110.385C655.546 107.291 657.471 104.596 660.112 102.753C662.752 100.911 665.947 100.033 669.159 100.268C670.83 100.491 672.44 101.047 673.892 101.904C675.345 102.76 676.61 103.9 677.613 105.255C678.588 106.511 679.302 107.95 679.712 109.486C680.121 111.022 680.218 112.625 679.997 114.2C679.701 115.772 679.086 117.267 678.189 118.593C677.293 119.918 676.135 121.046 674.786 121.908C672.832 123.223 670.549 123.967 668.195 124.056L668.598 133.378C668.614 133.788 668.525 134.195 668.341 134.561C668.157 134.927 667.883 135.241 667.545 135.473C667.208 135.706 666.817 135.849 666.409 135.89C666.001 135.932 665.589 135.869 665.211 135.709L665.277 135.761Z" fill="#FFAC00"/>
<path d="M668.847 140.709C668.874 141.102 668.784 141.494 668.588 141.837C668.392 142.179 668.1 142.455 667.747 142.631C667.394 142.806 666.996 142.873 666.605 142.823C666.214 142.773 665.846 142.608 665.549 142.349C665.252 142.091 665.038 141.749 664.935 141.369C664.832 140.989 664.844 140.586 664.969 140.212C665.095 139.839 665.329 139.511 665.641 139.27C665.953 139.029 666.33 138.887 666.723 138.86C666.984 138.841 667.247 138.873 667.495 138.956C667.744 139.038 667.974 139.169 668.171 139.341C668.369 139.513 668.53 139.723 668.646 139.957C668.762 140.192 668.83 140.448 668.847 140.709Z" fill="#FFAC00"/>
<path d="M623.423 118.718C623.479 118.46 623.518 118.199 623.54 117.937C623.54 117.364 623.683 116.635 623.787 115.606C623.915 114.343 624.129 113.09 624.426 111.856C624.595 111.127 624.686 110.32 624.947 109.5C625.207 108.679 625.468 107.794 625.754 106.896C627.263 102.445 629.46 98.2575 632.268 94.4876C635.947 89.606 640.611 85.5516 645.959 82.5874C649.002 80.8722 652.244 79.5343 655.611 78.6032C659.246 77.6403 662.989 77.1502 666.749 77.145C668.73 77.1132 670.71 77.2176 672.676 77.4575C673.679 77.5616 674.669 77.822 675.673 77.9913C676.687 78.1649 677.688 78.4086 678.669 78.7204C682.775 79.8673 686.68 81.6369 690.249 83.9675C698.185 89.112 704.23 96.6986 707.471 105.581C709.216 110.338 710.098 115.369 710.076 120.437C710.13 125.657 709.206 130.841 707.353 135.722L706.767 137.206L706.689 137.402L706.767 137.597C710.037 145.109 713.281 152.492 716.342 159.64L716.889 159.015L697.349 151.528L697.114 151.437L696.919 151.619C691.75 156.625 685.422 160.275 678.499 162.244C672.584 163.871 666.391 164.227 660.328 163.286C654.265 162.346 648.471 160.131 643.327 156.788C639.115 154.027 635.401 150.571 632.346 146.568C627.918 140.724 625.049 133.851 624.009 126.595C623.853 125.293 623.722 124.199 623.605 123.21C623.488 122.22 623.605 121.413 623.54 120.723C623.475 120.033 623.54 119.577 623.54 119.2C623.605 119.19 623.664 119.156 623.705 119.104C623.746 119.053 623.766 118.988 623.761 118.923C623.756 118.857 623.726 118.796 623.678 118.751C623.63 118.707 623.566 118.682 623.501 118.682C623.435 118.682 623.372 118.707 623.324 118.751C623.275 118.796 623.246 118.857 623.241 118.923C623.236 118.988 623.256 119.053 623.297 119.104C623.338 119.156 623.397 119.19 623.462 119.2C623.462 119.577 623.462 120.085 623.462 120.723C623.462 121.361 623.462 122.246 623.462 123.236C623.462 124.225 623.683 125.358 623.813 126.647C624.242 129.779 624.988 132.859 626.041 135.839C627.532 139.775 629.538 143.497 632.007 146.906C635.075 150.981 638.815 154.503 643.067 157.322C648.274 160.749 654.15 163.029 660.306 164.012C666.462 164.995 672.757 164.659 678.773 163.025C685.779 161.036 692.186 157.351 697.427 152.296L696.997 152.388L716.537 159.913L717.514 160.291L717.084 159.288C713.984 152.14 710.779 144.771 707.523 137.245V137.623L708.122 136.1C710.023 131.112 710.968 125.812 710.91 120.476C710.951 115.301 710.068 110.16 708.304 105.294C704.994 96.2351 698.815 88.5043 690.705 83.2774C687.047 80.8924 683.038 79.0915 678.825 77.9392C677.828 77.6239 676.81 77.3845 675.777 77.2231C674.761 77.0408 673.758 76.7804 672.742 76.6893C670.75 76.4421 668.743 76.329 666.736 76.3508C662.916 76.3669 659.115 76.8835 655.429 77.8871C652.017 78.8557 648.733 80.2281 645.646 81.9754C640.245 85.0124 635.552 89.162 631.877 94.1491C629.078 97.9814 626.91 102.236 625.455 106.752C625.181 107.69 624.921 108.588 624.686 109.356C624.479 110.141 624.314 110.937 624.191 111.739C623.912 112.982 623.729 114.244 623.644 115.515C623.566 116.517 623.514 117.286 623.475 117.859C623.42 118.141 623.402 118.43 623.423 118.718Z" fill="#263238"/>
</g>
<defs>
<clipPath id="clip0_4_1889">
<rect width="977" height="651" fill="white" transform="translate(0.5 0.639648)"/>
</clipPath>
</defs>
</svg>
