<svg width="40" height="40" viewBox="0 0 40 40" fill="none" xmlns="http://www.w3.org/2000/svg">
<path d="M40 20.5C40 29.46 34.12 37.04 26 39.58V34.5C26 32.79 25.28 31.26 24.14 30.16C29.38 29.21 32 26.16 32 20.5C32 18.05 31.5 16.11 30.52 14.6C30.96 12.89 31.22 10.46 30 8.5C27.64 8.5 25.99 9.89 25.02 11.03C23.57 10.68 21.9 10.5 20 10.5C18.2 10.5 16.54 10.7 15.06 11.11C14.1 9.96 12.42 8.5 10 8.5C8.58 10.78 9.16 13.24 9.7 14.62C8.62 16.13 8 18.07 8 20.5C8 26.16 10.62 29.21 15.86 30.16C15.19 30.81 14.67 31.6 14.35 32.5H12C10.56 32.5 10 31.86 9.23 30.82C8.46 29.78 7.63 29.08 6.64 28.79C6.11 28.73 5.75 29.16 6.22 29.54C7.79 30.67 7.9 32.52 8.53 33.73C9.1 34.82 10.28 35.5 11.61 35.5H14V39.58C5.88 37.04 0 29.46 0 20.5C0 9.45 8.95 0.5 20 0.5C31.05 0.5 40 9.45 40 20.5Z" fill="#FFAC00"/>
</svg>
