<svg width="38" height="39" viewBox="0 0 38 39" fill="none" xmlns="http://www.w3.org/2000/svg">
<path d="M11.5 0.5C5.159 0.5 0 5.659 0 12V27C0 33.341 5.159 38.5 11.5 38.5H26.5C32.841 38.5 38 33.341 38 27V12C38 5.659 32.841 0.5 26.5 0.5H11.5ZM29 7.5C30.105 7.5 31 8.395 31 9.5C31 10.604 30.105 11.5 29 11.5C27.895 11.5 27 10.604 27 9.5C27 8.395 27.895 7.5 29 7.5ZM19 9.5C24.514 9.5 29 13.986 29 19.5C29 25.014 24.514 29.5 19 29.5C13.486 29.5 9 25.014 9 19.5C9 13.986 13.486 9.5 19 9.5ZM19 12.5C18.0807 12.5 17.1705 12.6811 16.3212 13.0328C15.4719 13.3846 14.7003 13.9002 14.0503 14.5503C13.4002 15.2003 12.8846 15.9719 12.5328 16.8212C12.1811 17.6705 12 18.5807 12 19.5C12 20.4193 12.1811 21.3295 12.5328 22.1788C12.8846 23.0281 13.4002 23.7997 14.0503 24.4497C14.7003 25.0998 15.4719 25.6154 16.3212 25.9672C17.1705 26.3189 18.0807 26.5 19 26.5C19.9193 26.5 20.8295 26.3189 21.6788 25.9672C22.5281 25.6154 23.2997 25.0998 23.9497 24.4497C24.5998 23.7997 25.1154 23.0281 25.4672 22.1788C25.8189 21.3295 26 20.4193 26 19.5C26 18.5807 25.8189 17.6705 25.4672 16.8212C25.1154 15.9719 24.5998 15.2003 23.9497 14.5503C23.2997 13.9002 22.5281 13.3846 21.6788 13.0328C20.8295 12.6811 19.9193 12.5 19 12.5Z" fill="#FFAC00"/>
</svg>
