<svg width="36" height="37" viewBox="0 0 36 37" fill="none" xmlns="http://www.w3.org/2000/svg">
<path d="M30.5 0.5H5.5C2.468 0.5 0 2.968 0 6V31C0 34.032 2.468 36.5 5.5 36.5H30.5C33.532 36.5 36 34.032 36 31V6C36 2.968 33.532 0.5 30.5 0.5ZM12 28.5C12 29.053 11.553 29.5 11 29.5H8C7.447 29.5 7 29.053 7 28.5V15.5C7 14.947 7.447 14.5 8 14.5H11C11.553 14.5 12 14.947 12 15.5V28.5ZM9.5 12.5C8.119 12.5 7 11.381 7 10C7 8.619 8.119 7.5 9.5 7.5C10.881 7.5 12 8.619 12 10C12 11.381 10.881 12.5 9.5 12.5ZM29 28.5C29 29.053 28.553 29.5 28 29.5H25C24.447 29.5 24 29.053 24 28.5V21C24 19.621 22.879 18.5 21.5 18.5C20.121 18.5 19 19.621 19 21V28.5C19 29.053 18.553 29.5 18 29.5H15C14.447 29.5 14 29.053 14 28.5V15.5C14 14.947 14.447 14.5 15 14.5H18C18.553 14.5 19 14.947 19 15.5V16.041C20.063 15.086 21.462 14.5 23 14.5C26.309 14.5 29 17.191 29 20.5V28.5Z" fill="#FFAC00"/>
</svg>
