<svg width="126" height="227" viewBox="0 0 126 227" fill="none" xmlns="http://www.w3.org/2000/svg">
<path d="M12.8652 0.877935C10.3796 0.881013 7.95134 1.625 5.8906 3.01485C3.82986 4.4047 2.23021 6.37732 1.29602 8.68071C0.361819 10.9841 0.135476 13.5137 0.645909 15.9464C1.15634 18.379 2.38037 20.6043 4.16164 22.3379L95.3237 113.5L4.16164 204.662C2.96196 205.814 2.00416 207.194 1.34434 208.72C0.684515 210.247 0.335933 211.89 0.319007 213.553C0.302081 215.216 0.61715 216.865 1.24576 218.405C1.87438 219.945 2.8039 221.344 3.97989 222.52C5.15588 223.696 6.5547 224.625 8.09442 225.254C9.63414 225.882 11.2838 226.197 12.9468 226.181C14.6098 226.164 16.2528 225.815 17.7794 225.155C19.306 224.495 20.6856 223.538 21.8374 222.338L121.837 122.338C124.181 119.994 125.497 116.815 125.497 113.5C125.497 110.185 124.181 107.006 121.837 104.662L21.8374 4.66211C20.6711 3.46321 19.2761 2.51055 17.7349 1.86054C16.1938 1.21053 14.5379 0.8764 12.8652 0.877935Z" fill="#1B0F00"/>
</svg>
