<svg width="182" height="32" viewBox="0 0 182 32" fill="none" xmlns="http://www.w3.org/2000/svg">
<path d="M15.5065 3.72902C15.3255 3.72789 15.1477 3.77752 14.9934 3.87227C14.8392 3.96703 14.7145 4.10312 14.6336 4.26511L11.3528 10.8281C10.0301 10.7065 8.71774 10.9312 7.49037 11.2722C6.00515 11.6847 4.60178 12.1249 3.5523 12.1249C3.39874 12.1248 3.24737 12.1612 3.11065 12.2311C2.97394 12.3011 2.85581 12.4025 2.766 12.527C2.67619 12.6516 2.61727 12.7957 2.5941 12.9475C2.57093 13.0993 2.58417 13.2545 2.63274 13.4001C3.91856 17.2576 7.33609 18.9522 8.30901 19.4006L7.11573 27.1544C7.08592 27.3472 7.11505 27.5446 7.19931 27.7206C7.28357 27.8967 7.41902 28.0432 7.58794 28.1409C7.75686 28.2387 7.95136 28.2831 8.14597 28.2685C8.34058 28.2538 8.52623 28.1807 8.6786 28.0588C11.4941 25.8064 14.9229 24.6571 15.4397 24.4878L22.4795 28.1609C22.6344 28.2416 22.8081 28.2788 22.9825 28.2688C23.1568 28.2588 23.3251 28.2019 23.4697 28.104C23.6144 28.0062 23.7298 27.8711 23.804 27.7131C23.8782 27.555 23.9082 27.3798 23.891 27.2061C23.891 27.2061 23.7276 25.5605 23.3978 23.6641C23.1231 22.0844 22.7397 20.47 22.1326 19.1811L28.0965 13.8139C28.2138 13.7082 28.3035 13.5755 28.3578 13.4273C28.4121 13.2791 28.4294 13.1198 28.4082 12.9634C28.3869 12.807 28.3277 12.6581 28.2358 12.5298C28.1439 12.4015 28.022 12.2975 27.8808 12.227C27.8808 12.227 24.1698 10.4344 19.6477 10.8269L16.3668 4.26511C16.2869 4.10504 16.1642 3.97022 16.0124 3.87559C15.8605 3.78097 15.6854 3.73024 15.5065 3.72902Z" fill="#FFAC00"/>
<path d="M53.5065 3.72902C53.3255 3.72789 53.1477 3.77752 52.9934 3.87227C52.8392 3.96703 52.7145 4.10312 52.6336 4.26511L49.3528 10.8281C48.0301 10.7065 46.7177 10.9312 45.4904 11.2722C44.0051 11.6847 42.6018 12.1249 41.5523 12.1249C41.3987 12.1248 41.2474 12.1612 41.1107 12.2311C40.9739 12.3011 40.8558 12.4025 40.766 12.527C40.6762 12.6516 40.6173 12.7957 40.5941 12.9475C40.5709 13.0993 40.5842 13.2545 40.6327 13.4001C41.9186 17.2576 45.3361 18.9522 46.309 19.4006L45.1157 27.1544C45.0859 27.3472 45.115 27.5446 45.1993 27.7206C45.2836 27.8967 45.419 28.0432 45.5879 28.1409C45.7569 28.2387 45.9514 28.2831 46.146 28.2685C46.3406 28.2538 46.5262 28.1807 46.6786 28.0588C49.4941 25.8064 52.9229 24.6571 53.4397 24.4878L60.4795 28.1609C60.6344 28.2416 60.8081 28.2788 60.9825 28.2688C61.1568 28.2588 61.3251 28.2019 61.4697 28.104C61.6144 28.0062 61.7298 27.8711 61.804 27.7131C61.8782 27.555 61.9082 27.3798 61.891 27.2061C61.891 27.2061 61.7276 25.5605 61.3978 23.6641C61.1231 22.0844 60.7397 20.47 60.1326 19.1811L66.0965 13.8139C66.2138 13.7082 66.3035 13.5755 66.3578 13.4273C66.4121 13.2791 66.4294 13.1198 66.4082 12.9634C66.3869 12.807 66.3277 12.6581 66.2358 12.5298C66.1439 12.4015 66.022 12.2975 65.8808 12.227C65.8808 12.227 62.1698 10.4344 57.6477 10.8269L54.3668 4.26511C54.2869 4.10504 54.1642 3.97022 54.0124 3.87559C53.8605 3.78097 53.6854 3.73024 53.5065 3.72902Z" fill="#FFAC00"/>
<path d="M91.0056 3.72902C90.8304 3.72789 90.6584 3.77752 90.5091 3.87227C90.3598 3.96703 90.2392 4.10312 90.1609 4.26511L86.9859 10.8281C85.7059 10.7065 84.4359 10.9312 83.2481 11.2722C81.8108 11.6847 80.4527 12.1249 79.437 12.1249C79.2884 12.1248 79.142 12.1612 79.0096 12.2311C78.8773 12.3011 78.763 12.4025 78.6761 12.527C78.5892 12.6516 78.5322 12.7957 78.5098 12.9475C78.4873 13.0993 78.5002 13.2545 78.5472 13.4001C79.7915 17.2576 83.0988 18.9522 84.0403 19.4006L82.8855 27.1544C82.8567 27.3472 82.8849 27.5446 82.9664 27.7206C83.048 27.8967 83.179 28.0432 83.3425 28.1409C83.506 28.2387 83.6942 28.2831 83.8825 28.2685C84.0709 28.2538 84.2505 28.1807 84.398 28.0588C87.1227 25.8064 90.4409 24.6571 90.941 24.4878L97.7537 28.1609C97.9036 28.2416 98.0717 28.2788 98.2404 28.2688C98.4091 28.2588 98.572 28.2019 98.712 28.104C98.8519 28.0062 98.9637 27.8711 99.0355 27.7131C99.1072 27.555 99.1363 27.3798 99.1197 27.2061C99.1197 27.2061 98.9615 25.5605 98.6424 23.6641C98.3765 22.0844 98.0055 20.47 97.418 19.1811L103.189 13.8139C103.303 13.7082 103.39 13.5755 103.442 13.4273C103.495 13.2791 103.512 13.1198 103.491 12.9634C103.471 12.807 103.413 12.6581 103.324 12.5298C103.235 12.4015 103.117 12.2975 102.981 12.227C102.981 12.227 99.3894 10.4344 95.0132 10.8269L91.8382 4.26511C91.7608 4.10504 91.6421 3.97022 91.4952 3.87559C91.3482 3.78097 91.1788 3.73024 91.0056 3.72902Z" fill="#FFAC00"/>
<path d="M128.507 3.72902C128.325 3.72789 128.148 3.77752 127.993 3.87227C127.839 3.96703 127.715 4.10312 127.634 4.26511L124.353 10.8281C123.03 10.7065 121.718 10.9312 120.49 11.2722C119.005 11.6847 117.602 12.1249 116.552 12.1249C116.399 12.1248 116.247 12.1612 116.111 12.2311C115.974 12.3011 115.856 12.4025 115.766 12.527C115.676 12.6516 115.617 12.7957 115.594 12.9475C115.571 13.0993 115.584 13.2545 115.633 13.4001C116.919 17.2576 120.336 18.9522 121.309 19.4006L120.116 27.1544C120.086 27.3472 120.115 27.5446 120.199 27.7206C120.284 27.8967 120.419 28.0432 120.588 28.1409C120.757 28.2387 120.951 28.2831 121.146 28.2685C121.341 28.2538 121.526 28.1807 121.679 28.0588C124.494 25.8064 127.923 24.6571 128.44 24.4878L135.48 28.1609C135.634 28.2416 135.808 28.2788 135.982 28.2688C136.157 28.2588 136.325 28.2019 136.47 28.104C136.614 28.0062 136.73 27.8711 136.804 27.7131C136.878 27.555 136.908 27.3798 136.891 27.2061C136.891 27.2061 136.728 25.5605 136.398 23.6641C136.123 22.0844 135.74 20.47 135.133 19.1811L141.096 13.8139C141.214 13.7082 141.304 13.5755 141.358 13.4273C141.412 13.2791 141.429 13.1198 141.408 12.9634C141.387 12.807 141.328 12.6581 141.236 12.5298C141.144 12.4015 141.022 12.2975 140.881 12.227C140.881 12.227 137.17 10.4344 132.648 10.8269L129.367 4.26511C129.287 4.10504 129.164 3.97022 129.012 3.87559C128.861 3.78097 128.685 3.73024 128.507 3.72902Z" fill="#FFAC00"/>
<path d="M166.507 3.72902C166.325 3.72789 166.148 3.77752 165.993 3.87227C165.839 3.96703 165.715 4.10312 165.634 4.26511L162.353 10.8281C161.03 10.7065 159.718 10.9312 158.49 11.2722C157.005 11.6847 155.602 12.1249 154.552 12.1249C154.399 12.1248 154.247 12.1612 154.111 12.2311C153.974 12.3011 153.856 12.4025 153.766 12.527C153.676 12.6516 153.617 12.7957 153.594 12.9475C153.571 13.0993 153.584 13.2545 153.633 13.4001C154.919 17.2576 158.336 18.9522 159.309 19.4006L158.116 27.1544C158.086 27.3472 158.115 27.5446 158.199 27.7206C158.284 27.8967 158.419 28.0432 158.588 28.1409C158.757 28.2387 158.951 28.2831 159.146 28.2685C159.341 28.2538 159.526 28.1807 159.679 28.0588C162.494 25.8064 165.923 24.6571 166.44 24.4878L173.48 28.1609C173.634 28.2416 173.808 28.2788 173.982 28.2688C174.157 28.2588 174.325 28.2019 174.47 28.104C174.614 28.0062 174.73 27.8711 174.804 27.7131C174.878 27.555 174.908 27.3798 174.891 27.2061C174.891 27.2061 174.728 25.5605 174.398 23.6641C174.123 22.0844 173.74 20.47 173.133 19.1811L179.096 13.8139C179.214 13.7082 179.304 13.5755 179.358 13.4273C179.412 13.2791 179.429 13.1198 179.408 12.9634C179.387 12.807 179.328 12.6581 179.236 12.5298C179.144 12.4015 179.022 12.2975 178.881 12.227C178.881 12.227 175.17 10.4344 170.648 10.8269L167.367 4.26511C167.287 4.10504 167.164 3.97022 167.012 3.87559C166.861 3.78097 166.685 3.73024 166.507 3.72902Z" fill="#FFAC00"/>
</svg>
