<svg width="37" height="37" viewBox="0 0 37 37" fill="none" xmlns="http://www.w3.org/2000/svg">
<path d="M14.5 0C6.51556 0 0 6.51556 0 14.5C0 22.4844 6.51556 29 14.5 29C17.7732 29 20.7889 27.893 23.2207 26.0508L32.5859 35.4141C32.7702 35.606 32.991 35.7593 33.2352 35.8648C33.4795 35.9704 33.7423 36.0262 34.0084 36.0289C34.2745 36.0316 34.5385 35.9812 34.7848 35.8806C35.0312 35.78 35.255 35.6313 35.4431 35.4431C35.6313 35.255 35.78 35.0312 35.8806 34.7848C35.9812 34.5385 36.0316 34.2745 36.0289 34.0084C36.0262 33.7423 35.9704 33.4795 35.8648 33.2352C35.7593 32.991 35.606 32.7702 35.4141 32.5859L26.0508 23.2207C27.893 20.7889 29 17.7732 29 14.5C29 6.51556 22.4844 0 14.5 0ZM14.5 4C20.3227 4 25 8.67732 25 14.5C25 17.2957 23.9141 19.8206 22.1484 21.6973C21.9766 21.8217 21.8256 21.9727 21.7012 22.1445C19.8241 23.9124 17.2977 25 14.5 25C8.67731 25 4 20.3227 4 14.5C4 8.67732 8.67731 4 14.5 4Z" fill="white"/>
</svg>
